<svg xmlns="http://www.w3.org/2000/svg" width="35.317" height="22.75" viewBox="0 0 35.317 22.75"><g transform="translate(0 -6.283)"><path d="M26.969,12.34a8.228,8.228,0,0,0-2.221.309,8.3,8.3,0,0,0-8.1-6.366,8.4,8.4,0,0,0-8.023,6.064c-.092,0-.185-.007-.277-.007a8.346,8.346,0,0,0,0,16.693H26.969a8.346,8.346,0,1,0,0-16.693Zm0,15.554H8.346a7.206,7.206,0,1,1,0-14.412c.223,0,.443.012.662.033l.5.045.107-.488a7.244,7.244,0,0,1,7.031-5.648,7.165,7.165,0,0,1,7.1,6.053l.109.68.648-.236a7.2,7.2,0,1,1,2.461,13.973Z" fill="#009bb4"/><path d="M22.4,15.363a.557.557,0,0,0-.787,0l-6.578,6.576-3.389-3.406a.552.552,0,0,0-.789,0L9.667,19.715a.561.561,0,0,0,0,.793L14.634,25.5a.559.559,0,0,0,.789,0l8.162-8.162a.551.551,0,0,0,0-.791Z" fill="#009bb4"/></g></svg>